# xmcd CD database file
#
# Track frame offsets:
#	183
#	14178
#	30190
#	54195
#	61123
#	77525
#	85568
#	100283
#	114308
#	126283
#	139258
#	149983
#	165733
#
# Disc length: 2641 seconds
#
# Revision: 0
# Processed by: cddbd v1.4PL0 Copyright (c) Steve Scherf et al.
# Submitted via: Feurio! 1.63 - http://www.feurio.com
#
DISCID=a80a4f0d
DTITLE=Eric Lee and Errol Dixon - Shakin´ Fingers
DYEAR=1900
DGENRE=
TTITLE0=Boogie Rap
TTITLE1=Rockin´ Eric Lee
TTITLE2=Hello
TTITLE3=Instant Boogie (Instr.)
TTITLE4=Come Alone To Me
TTITLE5=Swanee Boogie (Instr.)
TTITLE6=Give It Up
TTITLE7=No More Lonely Nights
TTITLE8=I Need Love
TTITLE9=I´ll Never Forget You
TTITLE10=Errol´s Boogie (Instr.)
TTITLE11=Boogie And The Blues
TTITLE12=Rockin´ Medley
EXTD=
EXTT0=
EXTT1=
EXTT2=
EXTT3=
EXTT4=
EXTT5=
EXTT6=
EXTT7=
EXTT8=
EXTT9=
EXTT10=
EXTT11=
EXTT12=
PLAYORDER=
